<svg xmlns="http://www.w3.org/2000/svg" viewBox="0 0 512 208">
  <path fill="#F6821F" d="M331.3 168.1c2.3-7.9 1.7-15.2-1.7-20.7-3.2-5.1-8.7-8.1-15.4-8.6l-115.4-1.5c-1.1 0-2-.6-2.5-1.5-.5-.9-.5-2.1.1-3 .9-1.4 2.4-2.3 4.1-2.4l116.4-1.5c15.6-.8 32.4-13.4 38.1-28.7l7.2-19.3c.3-.8.4-1.7.2-2.5-8.1-37.1-41-64.8-80.5-64.8-36.3 0-67.2 23.5-78 56.1-7-5.2-15.8-8-25.3-7.1-17.2 1.7-31 15.4-32.9 32.6-.5 4.6-.2 9.1.8 13.3-32.5 1-58.4 27.6-58.4 60.2 0 3.2.2 6.3.7 9.4.2 1.2 1.2 2.1 2.4 2.1h236.1c1.3 0 2.5-.8 2.9-2l1.1-3.6z"/>
  <path fill="#FBAD41" d="M381 88.6c-1.3 0-2.6.1-3.8.1-1.2 0-2.2.8-2.6 1.9l-4.8 16.5c-2.3 7.9-1.7 15.2 1.7 20.7 3.2 5.1 8.7 8.1 15.4 8.6l24.4 1.5c1.1.1 2 .6 2.5 1.5.5.9.5 2.1-.1 3-.9 1.4-2.4 2.3-4.1 2.4l-25.4 1.5c-15.7.8-32.4 13.4-38.1 28.7l-2 5.3c-.5 1.2.4 2.5 1.7 2.5h109.4c1.1 0 2.1-.7 2.4-1.7 2.2-7.3 3.5-15.1 3.5-23.2-.1-38.5-31.4-69.8-70.1-69.8"/>
</svg>
