<svg xmlns="http://www.w3.org/2000/svg" viewBox="0 0 100 40" fill="currentColor">
  <path d="M74.5 31.6l2.1-7.1c.4-1.4.2-2.7-.5-3.6-.7-.9-1.8-1.4-3.1-1.5l-42.5-.5c-.2 0-.4-.1-.5-.2-.1-.1-.1-.3-.1-.4.1-.3.3-.5.6-.5l42.8-.5c3.4-.2 7.1-3 8.3-6.3l1.5-4.2c.1-.2.1-.4 0-.6C80.4 2.8 76.4 0 71.8 0 67.6 0 64 2.4 62.1 5.8c-1.7-1.3-3.9-2-6.2-1.8-4.2.4-7.6 3.8-8.1 8-.1.9-.1 1.8.1 2.6-6.8.3-12.2 5.8-12.2 12.6 0 .9.1 1.8.3 2.7.1.3.3.5.6.5h37.4c.3 0 .5-.2.6-.5l-.1-.3z" fill="#f38020"/>
  <path d="M82.1 14.1c-.3 0-.5 0-.8.1-.2 0-.4.2-.5.4l-1.4 4.8c-.4 1.4-.2 2.7.5 3.6.7.9 1.8 1.4 3.1 1.5l9 .5c.2 0 .4.1.5.2.1.1.1.3.1.4-.1.3-.3.5-.6.5l-9.3.5c-3.4.2-7.1 3-8.3 6.3l-.4 1.2c-.1.2 0 .5.3.6h23.6c.3 0 .5-.2.6-.4.5-1.6.7-3.4.7-5.2-.1-8-6.6-14.5-14.6-14.5l-2.5-.5z" fill="#faad3f"/>
</svg>
