<svg xmlns="http://www.w3.org/2000/svg" viewBox="0 0 100 100" fill="currentColor">
  <path d="M50 40.2v19.6h27.5c-1.1 7.2-4.3 13.3-9.1 17.4l14.8 11.5c8.6-7.9 13.6-19.6 13.6-33.5 0-3.2-.3-6.3-.8-9.3H50z" fill="#4285f4"/>
  <path d="M22 59.4l-3.3 2.5-11.8 9.2C14.3 86.8 30.8 97.8 50 97.8c13.5 0 24.8-4.4 33.1-12l-14.8-11.5c-4.5 3-10.2 4.8-18.3 4.8-14.1 0-26-9.5-30.3-22.3l.3-.4z" fill="#34a853"/>
  <path d="M6.9 28.9C2.5 37.5 0 47.4 0 58c0 10.6 2.5 20.5 6.9 29.1l15.1-11.7C19.4 69.8 18 64.2 18 58s1.4-11.8 3.9-17.4L6.9 28.9z" fill="#fbbc05"/>
  <path d="M50 22.9c8 0 15.2 2.8 20.9 8.1l15.6-15.6C77.5 7.2 64.8 2.2 50 2.2 30.8 2.2 14.3 13.2 6.9 28.9l15.1 11.7c4.2-12.8 16.2-17.7 28-17.7z" fill="#ea4335"/>
</svg>
