<svg xmlns="http://www.w3.org/2000/svg" viewBox="0 0 512 447">
  <path fill="#362D59" d="M297.8 3.3c-12.9-5.9-28.1-1.7-36.3 9.8L158.3 183.4c19.4 11.2 35.4 27.6 45.7 47.4 10.3 19.8 15.6 42 15.6 64.6 0 6.3-.4 12.6-1.1 18.8h40.2c.8-6.2 1.3-12.5 1.3-18.8 0-27.9-5.8-55.6-17.5-81.7l-9.9 17.1c8.4 19.4 13.1 40.3 13.1 61.6 0 7-0.5 14-1.4 21h-134.8c-1.5-7-2.3-14.2-2.3-21.6 0-44.7 28.7-85.1 71.4-99.3l9.9-17.1C143.6 188.7 107 224 95.6 271H50.3c11.5-56.9 58.5-100 116.8-103.6l108.6-188c4.1-7.1 13.2-9.5 20.3-5.4l200.8 116c7.1 4.1 9.5 13.2 5.4 20.3L389.9 303.6c-4.1 7.1-13.2 9.5-20.3 5.4l-20.8-12c0 7.8-.6 15.5-1.7 23.2l25.6 14.8c23.6 13.6 53.8 5.6 67.4-18l112.3-194.5c13.6-23.6 5.6-53.8-18-67.4L297.8 3.3z"/>
</svg>
