<svg xmlns="http://www.w3.org/2000/svg" xmlns:xlink="http://www.w3.org/1999/xlink" width="500" zoomAndPan="magnify" viewBox="70 35 235 310" height="500" preserveAspectRatio="xMidYMid meet" version="1.0"><defs><g/><clipPath id="f382b1d16e"><path d="M 208 50 L 278.957031 50 L 278.957031 219 L 208 219 Z M 208 50 " clip-rule="nonzero"/></clipPath><clipPath id="aad26f1d93"><path d="M 206 37.5 L 217 37.5 L 217 88 L 206 88 Z M 206 37.5 " clip-rule="nonzero"/></clipPath><clipPath id="f7cfb0032c"><path d="M 156 37.5 L 168 37.5 L 168 87 L 156 87 Z M 156 37.5 " clip-rule="nonzero"/></clipPath><clipPath id="5cbd685438"><path d="M 202 305.992188 L 208 305.992188 L 208 310 L 202 310 Z M 202 305.992188 " clip-rule="nonzero"/></clipPath><clipPath id="0d8c84e453"><path d="M 72 312 L 302.871094 312 L 302.871094 332 L 72 332 Z M 72 312 " clip-rule="nonzero"/></clipPath><clipPath id="f691d07f35"><path d="M 74 323 L 298 323 L 298 337.492188 L 74 337.492188 Z M 74 323 " clip-rule="nonzero"/></clipPath><clipPath id="efaad1c0f2"><rect x="0" width="231" y="0" height="53"/></clipPath><clipPath id="803b3e8f3f"><rect x="0" width="232" y="0" height="45"/></clipPath></defs><path fill="#f47c7c" d="M 161.355469 53.140625 C 159.90625 52.800781 158.457031 53.699219 158.117188 55.152344 L 153.472656 74.960938 L 140.335938 127.003906 C 133.585938 153.746094 118.328125 178.082031 97.257812 195.816406 C 96.136719 196.761719 95.972656 198.425781 96.890625 199.570312 C 97.835938 200.75 99.566406 200.917969 100.722656 199.945312 C 103.476562 197.628906 106.132812 195.210938 108.6875 192.695312 L 108.6875 216.132812 C 108.6875 217.609375 109.824219 218.898438 111.296875 218.941406 C 112.824219 218.988281 114.074219 217.761719 114.074219 216.246094 L 114.074219 187.082031 C 116.878906 183.988281 119.542969 180.765625 122.058594 177.425781 L 122.058594 216.132812 C 122.058594 217.609375 123.195312 218.898438 124.667969 218.941406 C 126.195312 218.988281 127.445312 217.761719 127.445312 216.246094 L 127.445312 169.734375 C 127.640625 169.433594 127.839844 169.136719 128.03125 168.835938 C 130.746094 164.597656 133.207031 160.226562 135.429688 155.742188 L 135.429688 216.132812 C 135.429688 217.609375 136.566406 218.894531 138.039062 218.941406 C 139.566406 218.988281 140.816406 217.761719 140.816406 216.246094 L 140.816406 143.390625 C 142.675781 138.476562 144.261719 133.449219 145.554688 128.324219 L 158.699219 76.261719 C 158.703125 76.246094 158.707031 76.230469 158.710938 76.21875 L 163.359375 56.382812 C 163.699219 54.933594 162.800781 53.480469 161.355469 53.140625 Z M 161.355469 53.140625 " fill-opacity="1" fill-rule="nonzero"/><g clip-path="url(#f382b1d16e)"><path fill="#f47c7c" d="M 277.609375 197.492188 C 255.484375 179.632812 239.460938 154.601562 232.496094 127.003906 L 219.359375 74.964844 L 213.996094 52.75 C 213.648438 51.304688 212.191406 50.414062 210.746094 50.765625 C 209.300781 51.113281 208.414062 52.570312 208.761719 54.019531 L 214.132812 76.261719 L 227.277344 128.328125 C 228.570312 133.449219 230.15625 138.476562 232.015625 143.390625 L 232.015625 216.246094 C 232.015625 217.734375 233.222656 218.941406 234.707031 218.941406 C 236.195312 218.941406 237.402344 217.734375 237.402344 216.246094 L 237.402344 155.742188 C 239.621094 160.226562 242.085938 164.597656 244.796875 168.835938 C 244.992188 169.136719 245.191406 169.433594 245.386719 169.734375 L 245.386719 216.246094 C 245.386719 217.734375 246.59375 218.941406 248.078125 218.941406 C 249.566406 218.941406 250.773438 217.734375 250.773438 216.246094 L 250.773438 177.425781 C 253.289062 180.765625 255.953125 183.988281 258.757812 187.082031 L 258.757812 216.246094 C 258.757812 217.734375 259.964844 218.941406 261.449219 218.941406 C 262.9375 218.941406 264.140625 217.734375 264.140625 216.246094 L 264.140625 192.695312 C 267.347656 195.851562 270.714844 198.855469 274.234375 201.695312 C 274.730469 202.097656 275.328125 202.292969 275.921875 202.292969 C 276.707031 202.292969 277.484375 201.949219 278.019531 201.285156 C 278.949219 200.125 278.769531 198.429688 277.609375 197.492188 Z M 277.609375 197.492188 " fill-opacity="1" fill-rule="nonzero"/></g><path fill="#d83131" d="M 205.394531 86.554688 L 160.136719 86.554688 L 160.136719 103.3125 L 168.398438 102.597656 L 169.089844 102.597656 L 176.175781 97.515625 L 197.617188 97.515625 L 205.179688 102.941406 L 205.394531 102.941406 L 213.214844 103.3125 L 213.214844 86.554688 Z M 205.394531 86.554688 " fill-opacity="1" fill-rule="nonzero"/><path fill="#d83131" d="M 206.5 45.894531 L 160.136719 45.894531 L 160.136719 64.246094 L 167.292969 63.230469 L 176.175781 56.859375 L 197.617188 56.859375 L 206.5 63.230469 L 213.214844 64.246094 L 213.214844 45.894531 Z M 206.5 45.894531 " fill-opacity="1" fill-rule="nonzero"/><path fill="#d83131" d="M 203.863281 126.449219 L 163.925781 126.449219 L 163.925781 142.902344 L 169.929688 141.894531 L 176.175781 137.410156 L 197.617188 137.410156 L 203.863281 141.894531 L 211.742188 142.417969 L 211.742188 126.449219 Z M 203.863281 126.449219 " fill-opacity="1" fill-rule="nonzero"/><path fill="#d83131" d="M 202.46875 171.332031 L 161.328125 171.332031 L 161.328125 186.910156 L 171.324219 185.777344 L 176.175781 182.292969 L 197.617188 182.292969 L 202.46875 185.777344 L 211.742188 187.382812 L 211.742188 171.332031 Z M 202.46875 171.332031 " fill-opacity="1" fill-rule="nonzero"/><g clip-path="url(#aad26f1d93)"><path fill="#e94444" d="M 216.984375 40.175781 L 216.984375 87.105469 L 206.5 87.105469 L 206.5 40.175781 C 206.5 38.6875 207.707031 37.484375 209.1875 37.484375 L 214.296875 37.484375 C 215.78125 37.484375 216.984375 38.6875 216.984375 40.175781 Z M 216.984375 40.175781 " fill-opacity="1" fill-rule="nonzero"/></g><path fill="#d83131" d="M 206.5 69.484375 L 216.984375 69.484375 L 216.984375 87.105469 L 206.5 87.105469 Z M 206.5 69.484375 " fill-opacity="1" fill-rule="nonzero"/><path fill="#e94444" d="M 218.089844 76.449219 L 218.089844 132.976562 L 205.394531 132.976562 L 205.394531 76.449219 C 205.394531 75.980469 205.773438 75.597656 206.242188 75.597656 L 217.242188 75.597656 C 217.714844 75.597656 218.089844 75.980469 218.089844 76.449219 Z M 218.089844 76.449219 " fill-opacity="1" fill-rule="nonzero"/><path fill="#d83131" d="M 205.394531 112.117188 L 218.089844 112.117188 L 218.089844 132.976562 L 205.394531 132.976562 Z M 205.394531 112.117188 " fill-opacity="1" fill-rule="nonzero"/><path fill="#e94444" d="M 205.394531 118.230469 L 218.523438 118.230469 C 219.128906 118.230469 219.621094 118.722656 219.621094 119.332031 L 219.621094 178.425781 L 203.863281 178.425781 L 203.863281 119.332031 C 203.863281 118.722656 204.355469 118.230469 204.96875 118.230469 Z M 205.394531 118.230469 " fill-opacity="1" fill-rule="nonzero"/><path fill="#d83131" d="M 219.097656 159.003906 L 204.394531 159.003906 C 204.214844 159.003906 204.039062 159.011719 203.863281 159.023438 L 203.863281 178.425781 L 219.621094 178.425781 L 219.621094 159.023438 C 219.445312 159.011719 219.273438 159.003906 219.097656 159.003906 Z M 219.097656 159.003906 " fill-opacity="1" fill-rule="nonzero"/><path fill="#e94444" d="M 221.015625 167.042969 L 221.015625 214.285156 C 221.015625 215.367188 220.140625 216.246094 219.058594 216.246094 L 204.425781 216.246094 C 203.347656 216.246094 202.46875 215.367188 202.46875 214.285156 L 202.46875 167.046875 C 202.46875 165.980469 203.328125 165.117188 204.390625 165.117188 L 219.097656 165.117188 C 220.15625 165.117188 221.015625 165.980469 221.015625 167.042969 Z M 221.015625 167.042969 " fill-opacity="1" fill-rule="nonzero"/><g clip-path="url(#f7cfb0032c)"><path fill="#e94444" d="M 167.292969 40.175781 L 167.292969 86.386719 L 156.808594 86.386719 L 156.808594 40.175781 C 156.808594 38.6875 158.011719 37.484375 159.496094 37.484375 L 164.605469 37.484375 C 166.085938 37.484375 167.292969 38.6875 167.292969 40.175781 Z M 167.292969 40.175781 " fill-opacity="1" fill-rule="nonzero"/></g><path fill="#d83131" d="M 156.808594 69.484375 L 167.292969 69.484375 L 167.292969 86.386719 L 156.808594 86.386719 Z M 156.808594 69.484375 " fill-opacity="1" fill-rule="nonzero"/><path fill="#e94444" d="M 168.398438 76.449219 L 168.398438 131.539062 L 155.703125 131.539062 L 155.703125 76.449219 C 155.703125 75.980469 156.078125 75.597656 156.550781 75.597656 L 167.550781 75.597656 C 168.019531 75.597656 168.398438 75.980469 168.398438 76.449219 Z M 168.398438 76.449219 " fill-opacity="1" fill-rule="nonzero"/><path fill="#d83131" d="M 155.703125 112.117188 L 168.398438 112.117188 L 168.398438 131.539062 L 155.703125 131.539062 Z M 155.703125 112.117188 " fill-opacity="1" fill-rule="nonzero"/><path fill="#e94444" d="M 169.929688 119.332031 L 169.929688 177.707031 L 154.171875 177.707031 L 154.171875 119.332031 C 154.171875 118.722656 154.664062 118.230469 155.269531 118.230469 L 168.824219 118.230469 C 169.4375 118.230469 169.929688 118.722656 169.929688 119.332031 Z M 169.929688 119.332031 " fill-opacity="1" fill-rule="nonzero"/><path fill="#d83131" d="M 169.929688 159.023438 C 169.753906 159.011719 169.578125 159.003906 169.398438 159.003906 L 154.695312 159.003906 C 154.519531 159.003906 154.347656 159.011719 154.171875 159.023438 L 154.171875 177.707031 L 169.929688 177.707031 Z M 169.929688 159.023438 " fill-opacity="1" fill-rule="nonzero"/><path fill="#e94444" d="M 171.324219 167.046875 L 171.324219 214.355469 C 171.324219 215.398438 170.480469 216.246094 169.4375 216.246094 L 154.664062 216.246094 C 153.621094 216.246094 152.777344 215.398438 152.777344 214.355469 L 152.777344 167.042969 C 152.777344 165.980469 153.636719 165.117188 154.695312 165.117188 L 169.398438 165.117188 C 170.464844 165.117188 171.324219 165.980469 171.324219 167.046875 Z M 171.324219 167.046875 " fill-opacity="1" fill-rule="nonzero"/><g clip-path="url(#5cbd685438)"><path fill="#3bb4d7" d="M 204.746094 306.082031 C 205.273438 305.957031 205.859375 305.957031 206.378906 306.121094 C 206.960938 306.53125 207.371094 307.167969 206.914062 307.84375 C 206.222656 308.992188 204.429688 309.457031 203.203125 309.75 C 202.5625 309.953125 202.015625 309.390625 202.085938 308.761719 C 202.148438 307.402344 203.558594 306.433594 204.746094 306.082031 Z M 204.746094 306.082031 " fill-opacity="1" fill-rule="nonzero"/></g><g clip-path="url(#0d8c84e453)"><path fill="#3bb4d7" d="M 302.742188 312.144531 C 302.644531 312.859375 302.660156 313.507812 302.164062 314.09375 C 301.042969 315.519531 299.605469 316.714844 298.296875 317.972656 C 295.503906 320.628906 292.539062 323.089844 289.355469 325.269531 C 285.589844 327.78125 281.019531 329.148438 276.71875 330.507812 C 272.285156 331.839844 267.53125 331.429688 263.347656 329.476562 C 262.070312 328.878906 260.925781 328.136719 259.597656 327.648438 C 258.792969 327.351562 258.027344 327.011719 257.378906 326.429688 C 255.90625 325.117188 254.609375 323.632812 253.46875 322.023438 C 253.300781 321.816406 252.996094 321.363281 252.703125 321.632812 C 251.4375 322.667969 250.265625 323.796875 248.890625 324.691406 C 246.300781 326.519531 243.488281 327.519531 240.527344 328.550781 C 237.265625 329.734375 233.910156 330.371094 230.4375 330.398438 C 228.492188 330.523438 226.578125 330.265625 224.671875 329.902344 C 223.085938 329.578125 221.640625 328.925781 220.078125 328.472656 C 218.101562 327.910156 216.476562 326.261719 214.84375 325.019531 C 212.257812 323.015625 210.730469 320.410156 208.851562 317.796875 C 206.75 319.269531 204.773438 320.925781 202.652344 322.375 C 200.691406 323.695312 198.511719 324.550781 196.402344 325.664062 C 193.816406 327.023438 191.152344 328.535156 188.28125 329.199219 C 185.566406 329.839844 182.628906 330.207031 179.863281 329.738281 C 176.5625 329.195312 173.0625 328.347656 170.15625 326.640625 C 167.578125 325.152344 165.699219 323.113281 163.285156 321.257812 C 161.972656 320.265625 160.824219 319.109375 159.710938 317.90625 C 157.78125 319.667969 155.796875 321.113281 153.539062 322.421875 C 150.042969 324.519531 146.328125 326.667969 142.425781 327.890625 C 139.277344 328.8125 136.046875 329.535156 132.800781 330.003906 C 131.550781 330.191406 130.441406 330.574219 129.191406 330.511719 C 124.1875 330.109375 119.859375 328.097656 115.625 325.53125 C 112.863281 323.765625 110.613281 320.949219 108.734375 318.300781 C 107.652344 319.011719 106.625 319.765625 105.625 320.578125 C 103.921875 321.941406 102.085938 323.101562 100.1875 324.171875 C 97.648438 325.589844 94.90625 326.558594 92.195312 327.5625 C 89.648438 328.507812 87.0625 329.335938 84.449219 330.0625 C 83.0625 330.46875 81.660156 330.460938 80.304688 330.980469 C 78.25 331.75 75.691406 332.328125 73.558594 331.589844 C 72.976562 331.304688 71.804688 330.769531 72.03125 329.957031 C 72.078125 329.195312 73.222656 329.183594 73.777344 329.082031 C 75.832031 328.949219 77.789062 328.417969 79.796875 328.015625 C 80.542969 327.867188 81.238281 327.59375 81.933594 327.285156 C 83.183594 326.734375 84.472656 326.398438 85.757812 325.953125 C 87.792969 325.238281 89.757812 324.394531 91.738281 323.550781 C 93.621094 322.742188 95.554688 322.003906 97.320312 320.980469 C 99.039062 320.003906 100.625 318.84375 102.1875 317.625 C 103.335938 316.71875 104.472656 315.945312 105.488281 314.882812 C 105.980469 314.390625 106.476562 313.785156 107.070312 313.425781 C 108.105469 312.78125 109.652344 313.226562 110.1875 314.324219 C 110.644531 315.167969 110.996094 316.023438 111.652344 316.746094 C 112.824219 318.058594 114.113281 319.28125 115.433594 320.449219 C 117.296875 322.125 119.789062 323.222656 122.085938 324.183594 C 123.996094 324.992188 125.972656 325.59375 128.042969 325.792969 C 130.085938 325.957031 131.761719 326.617188 133.785156 326.175781 C 136.109375 325.660156 138.386719 324.890625 140.652344 324.160156 C 144.804688 322.71875 148.78125 320.117188 152.429688 317.691406 C 154.179688 316.535156 155.761719 315.175781 157.265625 313.71875 C 158.015625 313.027344 158.878906 312.164062 159.988281 312.316406 C 161.277344 312.566406 162.09375 313.828125 162.921875 314.742188 C 164.734375 316.910156 166.949219 318.183594 169.078125 319.976562 C 170.660156 321.296875 172.136719 322.589844 174.085938 323.355469 C 176.695312 324.375 179.503906 325.027344 182.3125 325.085938 C 184.386719 325.167969 186.5625 324.558594 188.515625 323.898438 C 190.976562 323.027344 193.183594 321.511719 195.609375 320.394531 C 197.429688 319.550781 199.175781 318.585938 200.761719 317.355469 C 202.089844 316.308594 203.398438 315.234375 204.753906 314.21875 C 206.054688 313.253906 207.316406 312.242188 208.988281 312.074219 C 210.027344 311.988281 210.835938 312.582031 211.46875 313.339844 C 212.789062 314.960938 213.789062 316.851562 215.132812 318.464844 C 216.128906 319.652344 217.203125 320.847656 218.414062 321.820312 C 219.671875 322.859375 220.972656 323.679688 222.019531 324.878906 C 222.574219 325.453125 223.003906 326.167969 223.84375 326.324219 C 225.421875 326.625 227.082031 326.792969 228.691406 326.746094 C 231.601562 326.710938 234.636719 326.375 237.382812 325.355469 C 241.484375 323.953125 245.371094 322.40625 248.617188 319.425781 C 249.699219 318.457031 250.503906 317.242188 251.53125 316.230469 C 252.320312 315.414062 253.683594 315.523438 254.59375 316.046875 C 255.636719 316.625 256.058594 317.960938 256.644531 318.9375 C 257.613281 320.671875 259.082031 321.734375 260.402344 323.171875 C 261.035156 323.816406 261.582031 324.589844 262.289062 325.148438 C 265.214844 327.101562 268.609375 327.621094 272.070312 327.386719 C 274.421875 327.171875 276.777344 326.21875 279 325.4375 C 282.027344 324.371094 284.90625 323.074219 287.523438 321.1875 C 289.171875 319.980469 290.777344 318.738281 292.566406 317.738281 C 295.347656 316.195312 297.828125 314.257812 300.464844 312.5 C 301.261719 311.957031 301.820312 311.964844 302.742188 312.144531 Z M 302.742188 312.144531 " fill-opacity="1" fill-rule="nonzero"/></g><path fill="#3bb4d7" d="M 219.179688 312.710938 C 220.414062 313.777344 221.511719 315.003906 222.726562 316.09375 C 224.242188 317.585938 226.207031 318.621094 228.277344 319.082031 C 229.671875 319.371094 231.074219 319.351562 232.46875 319.078125 C 234.285156 318.730469 236.351562 318.65625 238.035156 317.921875 C 238.964844 317.539062 239.789062 316.925781 240.71875 316.550781 C 241.078125 316.398438 241.402344 316.488281 241.765625 316.558594 C 241.996094 317.550781 241.355469 318.183594 240.710938 318.816406 C 239.109375 320.261719 236.867188 321.15625 234.867188 321.902344 C 233.429688 322.40625 232.109375 322.980469 230.554688 322.898438 C 226.597656 322.917969 222.589844 321.042969 220.210938 317.847656 C 219.230469 316.585938 218.003906 315.277344 217.480469 313.753906 C 217.347656 313.304688 217.207031 312.785156 217.644531 312.453125 C 218.082031 311.929688 218.765625 312.390625 219.179688 312.710938 Z M 219.179688 312.710938 " fill-opacity="1" fill-rule="nonzero"/><path fill="#3bb4d7" d="M 260.070312 314.789062 C 260.347656 315.089844 260.578125 315.441406 260.816406 315.773438 C 259.984375 315.753906 259.171875 315.601562 258.355469 315.441406 C 258.433594 315.179688 258.511719 314.914062 258.597656 314.648438 C 259.066406 314.65625 259.636719 314.589844 260.070312 314.789062 Z M 260.070312 314.789062 " fill-opacity="1" fill-rule="nonzero"/><path fill="#3bb4d7" d="M 196.128906 312.433594 C 196.671875 312.96875 196.308594 313.816406 195.917969 314.332031 C 194.5625 316.125 192.707031 317.488281 190.640625 318.367188 C 187.660156 319.765625 184.527344 321.429688 181.125 321.140625 C 179.289062 321 177.214844 321.101562 175.476562 320.476562 C 173.285156 319.773438 171.480469 317.832031 170.320312 315.902344 C 170.996094 315.882812 171.636719 315.78125 172.269531 316.078125 C 173.675781 316.695312 174.699219 317.613281 176.304688 317.785156 C 178.460938 318.015625 180.679688 317.9375 182.824219 317.621094 C 185.300781 317.222656 187.035156 315.902344 189.246094 314.816406 C 190.628906 314.140625 191.703125 313.070312 192.996094 312.265625 C 193.917969 311.667969 195.335938 311.574219 196.128906 312.433594 Z M 196.128906 312.433594 " fill-opacity="1" fill-rule="nonzero"/><path fill="#3bb4d7" d="M 283.195312 316.792969 C 283.914062 316.789062 285.140625 317.246094 285.160156 318.105469 C 284.925781 319.019531 284.027344 319.507812 283.214844 319.839844 C 281.773438 320.394531 280.296875 320.835938 278.890625 321.492188 C 277.34375 322.152344 276.007812 323.035156 274.261719 322.933594 C 271.230469 322.738281 268.316406 322.941406 265.480469 321.710938 C 264.480469 321.265625 263.988281 320.460938 263.597656 319.476562 C 265.472656 319.226562 267.269531 319.710938 269.144531 319.539062 C 270.355469 319.429688 271.5625 319.25 272.78125 319.210938 C 273.964844 319.171875 275.0625 318.960938 276.164062 318.519531 C 278.394531 317.613281 280.777344 316.890625 283.195312 316.792969 Z M 283.195312 316.792969 " fill-opacity="1" fill-rule="nonzero"/><path fill="#3bb4d7" d="M 118.226562 314.8125 C 119.21875 315.371094 119.980469 316.257812 121.042969 316.75 C 122.503906 317.472656 124.261719 317.566406 125.664062 318.359375 C 126.453125 319.050781 126.972656 320.164062 127.300781 321.148438 C 126.996094 322.019531 125.589844 321.960938 124.835938 322.03125 C 122.914062 322.148438 121.535156 321.152344 119.878906 320.34375 C 118.542969 319.691406 117.628906 318.539062 116.996094 317.222656 C 116.699219 316.605469 116.675781 315.890625 116.875 315.242188 C 117.179688 314.722656 117.679688 314.558594 118.226562 314.808594 Z M 118.226562 314.8125 " fill-opacity="1" fill-rule="nonzero"/><g clip-path="url(#f691d07f35)"><path fill="#3bb4d7" d="M 295.121094 325.925781 C 296.015625 325.972656 296.828125 326.257812 297.632812 326.613281 C 297.152344 326.878906 296.742188 327.183594 296.179688 327.242188 C 294.019531 327.558594 292.042969 327.351562 289.949219 328.207031 C 287.980469 328.976562 286.898438 330.484375 285.167969 331.714844 C 283.59375 332.9375 281.90625 333.792969 280.015625 334.40625 C 277.574219 335.359375 275.027344 335.964844 272.40625 336.097656 C 270.476562 336.117188 268.574219 335.945312 266.671875 335.632812 C 263.792969 335.308594 260.839844 335.441406 257.96875 335.019531 C 255.367188 334.46875 252.859375 333.332031 250.457031 332.210938 C 248.890625 333.410156 247.890625 334.761719 246.074219 335.546875 C 244.164062 336.425781 242.164062 336.335938 240.132812 336.015625 C 239.136719 335.847656 238.105469 335.378906 237.097656 335.402344 C 235.996094 335.578125 234.960938 336.0625 233.863281 336.269531 C 230.640625 336.894531 227.292969 336.566406 224.019531 336.414062 C 222.148438 336.332031 220.507812 335.742188 218.757812 335.148438 C 215.484375 334.105469 212.542969 331.539062 209.757812 329.574219 C 209.421875 329.367188 209.085938 329.15625 208.683594 329.113281 C 208.007812 329.308594 207.394531 329.824219 206.824219 330.222656 C 204.949219 331.625 202.90625 332.742188 200.769531 333.695312 C 198.675781 334.625 196.800781 335.679688 194.539062 336.101562 C 190.722656 336.789062 186.824219 336.859375 182.980469 336.328125 C 181.730469 336.136719 180.683594 335.554688 179.582031 334.984375 C 178.433594 334.367188 177 334.523438 175.714844 334.410156 C 173.054688 334.277344 170.394531 333.269531 168.179688 331.804688 C 165.871094 330.382812 163.597656 328.953125 161.417969 327.332031 C 159.773438 328.332031 158.265625 329.511719 156.566406 330.425781 C 154.363281 331.625 152.320312 332.960938 149.984375 333.898438 C 148.199219 334.625 146.484375 335.503906 144.695312 336.195312 C 141.941406 337.261719 138.816406 337.246094 135.875 337.472656 C 134.039062 337.503906 131.796875 337.609375 130.210938 336.546875 C 129.117188 335.910156 128.394531 334.777344 127.035156 334.832031 C 123.863281 334.679688 120.65625 334.652344 117.5 334.300781 C 115.03125 333.890625 112.484375 333.304688 110.234375 332.1875 C 107.894531 330.871094 105.671875 329.289062 103.589844 327.597656 C 101.015625 328.84375 98.578125 330.460938 96.082031 331.847656 C 94.523438 332.660156 92.933594 333.445312 91.339844 334.1875 C 88.941406 335.304688 86.492188 335.84375 83.929688 336.421875 C 82.101562 336.816406 80.375 337.195312 78.488281 337.035156 C 77.089844 336.90625 75.722656 336.445312 74.910156 335.230469 C 76.398438 335.222656 77.871094 335.445312 79.292969 335.226562 C 81.425781 334.929688 83.566406 334.121094 85.667969 333.535156 C 87.171875 333.113281 88.546875 332.539062 89.90625 331.777344 C 93.921875 329.574219 97.890625 327.257812 101.675781 324.675781 C 102.539062 324.070312 103.636719 323.929688 104.558594 324.496094 C 105.667969 325.207031 106.566406 326.203125 107.667969 326.9375 C 109.027344 327.839844 110.410156 328.769531 111.890625 329.457031 C 114.351562 330.515625 117.070312 331.089844 119.722656 331.398438 C 122.753906 331.660156 125.804688 331.691406 128.835938 331.914062 C 129.902344 331.949219 130.566406 332.882812 131.390625 333.441406 C 132.445312 334.292969 134.082031 334.164062 135.363281 334.15625 C 137.867188 333.988281 140.582031 333.929688 143 333.257812 C 144.777344 332.777344 146.222656 331.878906 147.984375 331.171875 C 149.441406 330.589844 150.851562 329.933594 152.203125 329.132812 C 154.425781 327.816406 156.628906 326.816406 158.640625 325.171875 C 159.390625 324.617188 160.234375 323.832031 161.164062 323.632812 C 162.167969 323.46875 162.785156 324.195312 163.5 324.753906 C 165.371094 326.394531 167.414062 327.433594 169.511719 328.839844 C 171.570312 330.230469 173.9375 331.21875 176.4375 331.359375 C 177.59375 331.445312 178.8125 331.109375 179.941406 331.324219 C 181.308594 331.761719 182.328125 332.8125 183.824219 333.078125 C 185.652344 333.378906 187.515625 333.300781 189.34375 333.101562 C 190.867188 332.933594 192.421875 332.886719 193.929688 332.605469 C 195.6875 332.273438 197.230469 331.226562 198.894531 330.519531 C 200.472656 329.847656 202.035156 329.246094 203.445312 328.242188 C 204.867188 327.304688 206.296875 325.886719 207.929688 325.375 C 209.085938 324.996094 210.25 325.933594 211.175781 326.519531 C 213.3125 328.054688 215.410156 329.621094 217.726562 330.886719 C 219.351562 331.789062 221.269531 332.246094 223.0625 332.707031 C 226.082031 333.503906 229.402344 333.125 232.488281 332.84375 C 234.046875 332.707031 235.316406 331.746094 236.832031 331.554688 C 237.84375 331.546875 238.886719 332.027344 239.867188 332.269531 C 241.839844 332.808594 244.136719 332.816406 245.835938 331.535156 C 246.996094 330.730469 247.78125 329.332031 249.019531 328.691406 C 250.214844 328.242188 251.417969 328.757812 252.476562 329.308594 C 255.074219 330.601562 257.933594 331.410156 260.800781 331.828125 C 263.316406 332.15625 266 332.003906 268.546875 332.460938 C 270.613281 332.832031 272.714844 332.898438 274.792969 332.539062 C 276.878906 332.257812 278.667969 331.476562 280.675781 330.871094 C 282.601562 330.28125 283.84375 329.046875 285.503906 328 C 286.878906 327.089844 288.378906 326.390625 289.992188 326.03125 C 291.613281 325.628906 293.457031 325.832031 295.121094 325.925781 Z M 295.121094 325.925781 " fill-opacity="1" fill-rule="nonzero"/></g><path fill="#3bb4d7" d="M 138.332031 319.554688 C 138.105469 319.9375 137.90625 320.40625 137.574219 320.707031 C 136.449219 321.542969 135.203125 322.105469 133.773438 322.019531 C 133.960938 321.445312 133.957031 320.917969 134.527344 320.582031 C 135.652344 319.882812 136.972656 319.199219 138.332031 319.554688 Z M 138.332031 319.554688 " fill-opacity="1" fill-rule="nonzero"/><g transform="matrix(1, 0, 0, 1, 72, 217)"><g clip-path="url(#efaad1c0f2)"><g fill="#249eb1" fill-opacity="1"><g transform="translate(1.853854, 41.497795)"><g><path d="M 25.015625 -15.25 C 26.679688 -14.71875 27.988281 -13.828125 28.9375 -12.578125 C 29.894531 -11.335938 30.375 -9.8125 30.375 -8 C 30.375 -5.425781 29.375 -3.445312 27.375 -2.0625 C 25.375 -0.6875 22.460938 0 18.640625 0 L 3.484375 0 L 3.484375 -29.328125 L 17.796875 -29.328125 C 21.378906 -29.328125 24.125 -28.640625 26.03125 -27.265625 C 27.945312 -25.898438 28.90625 -24.046875 28.90625 -21.703125 C 28.90625 -20.273438 28.5625 -19.003906 27.875 -17.890625 C 27.195312 -16.773438 26.242188 -15.894531 25.015625 -15.25 Z M 10.21875 -24.21875 L 10.21875 -17.296875 L 16.96875 -17.296875 C 18.644531 -17.296875 19.914062 -17.585938 20.78125 -18.171875 C 21.644531 -18.765625 22.078125 -19.632812 22.078125 -20.78125 C 22.078125 -21.925781 21.644531 -22.785156 20.78125 -23.359375 C 19.914062 -23.929688 18.644531 -24.21875 16.96875 -24.21875 Z M 18.140625 -5.109375 C 19.921875 -5.109375 21.265625 -5.398438 22.171875 -5.984375 C 23.085938 -6.578125 23.546875 -7.488281 23.546875 -8.71875 C 23.546875 -11.144531 21.742188 -12.359375 18.140625 -12.359375 L 10.21875 -12.359375 L 10.21875 -5.109375 Z M 18.140625 -5.109375 "/></g></g></g><g fill="#249eb1" fill-opacity="1"><g transform="translate(33.885177, 41.497795)"><g><path d="M 22.78125 -6.28125 L 9.171875 -6.28125 L 6.578125 0 L -0.375 0 L 12.6875 -29.328125 L 19.390625 -29.328125 L 32.5 0 L 25.390625 0 Z M 20.65625 -11.4375 L 16 -22.65625 L 11.359375 -11.4375 Z M 20.65625 -11.4375 "/></g></g></g><g fill="#249eb1" fill-opacity="1"><g transform="translate(65.958376, 41.497795)"><g><path d="M 17.546875 -10.390625 L 17.546875 0 L 10.765625 0 L 10.765625 -10.46875 L -0.59375 -29.328125 L 6.625 -29.328125 L 14.453125 -16.296875 L 22.28125 -29.328125 L 28.953125 -29.328125 Z M 17.546875 -10.390625 "/></g></g></g><g fill="#249eb1" fill-opacity="1"><g transform="translate(94.263178, 41.497795)"><g/></g></g><g fill="#249eb1" fill-opacity="1"><g transform="translate(106.112674, 41.497795)"><g><path d="M 22.78125 -6.28125 L 9.171875 -6.28125 L 6.578125 0 L -0.375 0 L 12.6875 -29.328125 L 19.390625 -29.328125 L 32.5 0 L 25.390625 0 Z M 20.65625 -11.4375 L 16 -22.65625 L 11.359375 -11.4375 Z M 20.65625 -11.4375 "/></g></g></g><g fill="#249eb1" fill-opacity="1"><g transform="translate(138.185874, 41.497795)"><g><path d="M 22.15625 0 L 16.5 -8.171875 L 10.265625 -8.171875 L 10.265625 0 L 3.484375 0 L 3.484375 -29.328125 L 16.171875 -29.328125 C 18.765625 -29.328125 21.015625 -28.890625 22.921875 -28.015625 C 24.835938 -27.148438 26.3125 -25.921875 27.34375 -24.328125 C 28.382812 -22.742188 28.90625 -20.863281 28.90625 -18.6875 C 28.90625 -16.507812 28.378906 -14.628906 27.328125 -13.046875 C 26.285156 -11.472656 24.800781 -10.265625 22.875 -9.421875 L 29.453125 0 Z M 22.03125 -18.6875 C 22.03125 -20.332031 21.5 -21.59375 20.4375 -22.46875 C 19.375 -23.351562 17.828125 -23.796875 15.796875 -23.796875 L 10.265625 -23.796875 L 10.265625 -13.578125 L 15.796875 -13.578125 C 17.828125 -13.578125 19.375 -14.019531 20.4375 -14.90625 C 21.5 -15.800781 22.03125 -17.0625 22.03125 -18.6875 Z M 22.03125 -18.6875 "/></g></g></g><g fill="#249eb1" fill-opacity="1"><g transform="translate(168.961065, 41.497795)"><g><path d="M 26.1875 -5.453125 L 26.1875 0 L 3.484375 0 L 3.484375 -29.328125 L 25.640625 -29.328125 L 25.640625 -23.875 L 10.21875 -23.875 L 10.21875 -17.515625 L 23.828125 -17.515625 L 23.828125 -12.234375 L 10.21875 -12.234375 L 10.21875 -5.453125 Z M 26.1875 -5.453125 "/></g></g></g><g fill="#249eb1" fill-opacity="1"><g transform="translate(197.05651, 41.497795)"><g><path d="M 22.78125 -6.28125 L 9.171875 -6.28125 L 6.578125 0 L -0.375 0 L 12.6875 -29.328125 L 19.390625 -29.328125 L 32.5 0 L 25.390625 0 Z M 20.65625 -11.4375 L 16 -22.65625 L 11.359375 -11.4375 Z M 20.65625 -11.4375 "/></g></g></g></g></g><g transform="matrix(1, 0, 0, 1, 72, 262)"><g clip-path="url(#803b3e8f3f)"><g fill="#ff4444" fill-opacity="1"><g transform="translate(0.621004, 35.159755)"><g><path d="M 2.984375 -25.203125 L 14.4375 -25.203125 C 17.175781 -25.203125 19.59375 -24.675781 21.6875 -23.625 C 23.789062 -22.582031 25.421875 -21.113281 26.578125 -19.21875 C 27.742188 -17.320312 28.328125 -15.113281 28.328125 -12.59375 C 28.328125 -10.070312 27.742188 -7.863281 26.578125 -5.96875 C 25.421875 -4.070312 23.789062 -2.601562 21.6875 -1.5625 C 19.59375 -0.519531 17.175781 0 14.4375 0 L 2.984375 0 Z M 14.140625 -4.78125 C 16.660156 -4.78125 18.671875 -5.484375 20.171875 -6.890625 C 21.671875 -8.296875 22.421875 -10.195312 22.421875 -12.59375 C 22.421875 -15 21.671875 -16.898438 20.171875 -18.296875 C 18.671875 -19.703125 16.660156 -20.40625 14.140625 -20.40625 L 8.8125 -20.40625 L 8.8125 -4.78125 Z M 14.140625 -4.78125 "/></g></g></g><g fill="#ff4444" fill-opacity="1"><g transform="translate(31.080676, 35.159755)"><g><path d="M 2.984375 -25.203125 L 8.8125 -25.203125 L 8.8125 0 L 2.984375 0 Z M 2.984375 -25.203125 "/></g></g></g><g fill="#ff4444" fill-opacity="1"><g transform="translate(43.610296, 35.159755)"><g><path d="M 11.265625 0.4375 C 9.273438 0.4375 7.347656 0.164062 5.484375 -0.375 C 3.628906 -0.914062 2.140625 -1.617188 1.015625 -2.484375 L 2.984375 -6.875 C 4.066406 -6.082031 5.351562 -5.445312 6.84375 -4.96875 C 8.332031 -4.488281 9.816406 -4.25 11.296875 -4.25 C 12.953125 -4.25 14.175781 -4.492188 14.96875 -4.984375 C 15.757812 -5.472656 16.15625 -6.128906 16.15625 -6.953125 C 16.15625 -7.546875 15.921875 -8.039062 15.453125 -8.4375 C 14.992188 -8.832031 14.394531 -9.148438 13.65625 -9.390625 C 12.925781 -9.628906 11.9375 -9.894531 10.6875 -10.1875 C 8.769531 -10.644531 7.195312 -11.097656 5.96875 -11.546875 C 4.75 -12.003906 3.703125 -12.738281 2.828125 -13.75 C 1.953125 -14.757812 1.515625 -16.101562 1.515625 -17.78125 C 1.515625 -19.25 1.910156 -20.578125 2.703125 -21.765625 C 3.492188 -22.953125 4.6875 -23.890625 6.28125 -24.578125 C 7.875 -25.273438 9.820312 -25.625 12.125 -25.625 C 13.738281 -25.625 15.3125 -25.429688 16.84375 -25.046875 C 18.382812 -24.671875 19.726562 -24.125 20.875 -23.40625 L 19.078125 -18.96875 C 16.753906 -20.289062 14.425781 -20.953125 12.09375 -20.953125 C 10.457031 -20.953125 9.25 -20.6875 8.46875 -20.15625 C 7.695312 -19.632812 7.3125 -18.941406 7.3125 -18.078125 C 7.3125 -17.210938 7.757812 -16.566406 8.65625 -16.140625 C 9.5625 -15.722656 10.9375 -15.3125 12.78125 -14.90625 C 14.695312 -14.445312 16.265625 -13.988281 17.484375 -13.53125 C 18.710938 -13.082031 19.765625 -12.363281 20.640625 -11.375 C 21.515625 -10.394531 21.953125 -9.0625 21.953125 -7.375 C 21.953125 -5.9375 21.550781 -4.625 20.75 -3.4375 C 19.945312 -2.25 18.738281 -1.304688 17.125 -0.609375 C 15.519531 0.0859375 13.566406 0.4375 11.265625 0.4375 Z M 11.265625 0.4375 "/></g></g></g><g fill="#ff4444" fill-opacity="1"><g transform="translate(67.301195, 35.159755)"><g><path d="M 15.046875 0.4375 C 12.484375 0.4375 10.160156 -0.117188 8.078125 -1.234375 C 6.003906 -2.359375 4.375 -3.910156 3.1875 -5.890625 C 2 -7.867188 1.40625 -10.101562 1.40625 -12.59375 C 1.40625 -15.09375 2 -17.332031 3.1875 -19.3125 C 4.375 -21.289062 6.003906 -22.835938 8.078125 -23.953125 C 10.160156 -25.066406 12.492188 -25.625 15.078125 -25.625 C 17.265625 -25.625 19.238281 -25.238281 21 -24.46875 C 22.769531 -23.707031 24.253906 -22.609375 25.453125 -21.171875 L 21.703125 -17.71875 C 20.003906 -19.675781 17.894531 -20.65625 15.375 -20.65625 C 13.8125 -20.65625 12.414062 -20.3125 11.1875 -19.625 C 9.96875 -18.945312 9.015625 -17.992188 8.328125 -16.765625 C 7.648438 -15.546875 7.3125 -14.15625 7.3125 -12.59375 C 7.3125 -11.039062 7.648438 -9.648438 8.328125 -8.421875 C 9.015625 -7.203125 9.96875 -6.25 11.1875 -5.5625 C 12.414062 -4.875 13.8125 -4.53125 15.375 -4.53125 C 17.894531 -4.53125 20.003906 -5.53125 21.703125 -7.53125 L 25.453125 -4.0625 C 24.253906 -2.601562 22.765625 -1.488281 20.984375 -0.71875 C 19.210938 0.0507812 17.234375 0.4375 15.046875 0.4375 Z M 15.046875 0.4375 "/></g></g></g><g fill="#ff4444" fill-opacity="1"><g transform="translate(94.412482, 35.159755)"><g><path d="M 15.1875 0.4375 C 12.570312 0.4375 10.210938 -0.125 8.109375 -1.25 C 6.015625 -2.382812 4.375 -3.941406 3.1875 -5.921875 C 2 -7.898438 1.40625 -10.125 1.40625 -12.59375 C 1.40625 -15.070312 2 -17.300781 3.1875 -19.28125 C 4.375 -21.257812 6.015625 -22.8125 8.109375 -23.9375 C 10.210938 -25.0625 12.570312 -25.625 15.1875 -25.625 C 17.800781 -25.625 20.148438 -25.0625 22.234375 -23.9375 C 24.328125 -22.8125 25.972656 -21.257812 27.171875 -19.28125 C 28.378906 -17.300781 28.984375 -15.070312 28.984375 -12.59375 C 28.984375 -10.125 28.378906 -7.898438 27.171875 -5.921875 C 25.972656 -3.941406 24.328125 -2.382812 22.234375 -1.25 C 20.148438 -0.125 17.800781 0.4375 15.1875 0.4375 Z M 15.1875 -4.53125 C 16.675781 -4.53125 18.019531 -4.875 19.21875 -5.5625 C 20.425781 -6.25 21.367188 -7.203125 22.046875 -8.421875 C 22.734375 -9.648438 23.078125 -11.039062 23.078125 -12.59375 C 23.078125 -14.15625 22.734375 -15.546875 22.046875 -16.765625 C 21.367188 -17.992188 20.425781 -18.945312 19.21875 -19.625 C 18.019531 -20.3125 16.675781 -20.65625 15.1875 -20.65625 C 13.695312 -20.65625 12.351562 -20.3125 11.15625 -19.625 C 9.957031 -18.945312 9.015625 -17.992188 8.328125 -16.765625 C 7.648438 -15.546875 7.3125 -14.15625 7.3125 -12.59375 C 7.3125 -11.039062 7.648438 -9.648438 8.328125 -8.421875 C 9.015625 -7.203125 9.957031 -6.25 11.15625 -5.5625 C 12.351562 -4.875 13.695312 -4.53125 15.1875 -4.53125 Z M 15.1875 -4.53125 "/></g></g></g><g fill="#ff4444" fill-opacity="1"><g transform="translate(125.520228, 35.159755)"><g><path d="M 14.1875 0.4375 C 10.582031 0.4375 7.773438 -0.554688 5.765625 -2.546875 C 3.765625 -4.546875 2.765625 -7.394531 2.765625 -11.09375 L 2.765625 -25.203125 L 8.609375 -25.203125 L 8.609375 -11.296875 C 8.609375 -6.785156 10.476562 -4.53125 14.21875 -4.53125 C 16.039062 -4.53125 17.429688 -5.078125 18.390625 -6.171875 C 19.359375 -7.265625 19.84375 -8.972656 19.84375 -11.296875 L 19.84375 -25.203125 L 25.59375 -25.203125 L 25.59375 -11.09375 C 25.59375 -7.394531 24.585938 -4.546875 22.578125 -2.546875 C 20.578125 -0.554688 17.78125 0.4375 14.1875 0.4375 Z M 14.1875 0.4375 "/></g></g></g><g fill="#ff4444" fill-opacity="1"><g transform="translate(154.611734, 35.159755)"><g><path d="M 26.09375 -25.203125 L 26.09375 0 L 21.3125 0 L 8.75 -15.296875 L 8.75 0 L 2.984375 0 L 2.984375 -25.203125 L 7.8125 -25.203125 L 20.34375 -9.90625 L 20.34375 -25.203125 Z M 26.09375 -25.203125 "/></g></g></g><g fill="#ff4444" fill-opacity="1"><g transform="translate(184.42333, 35.159755)"><g><path d="M 8.203125 -20.453125 L 0.140625 -20.453125 L 0.140625 -25.203125 L 22.109375 -25.203125 L 22.109375 -20.453125 L 14.046875 -20.453125 L 14.046875 0 L 8.203125 0 Z M 8.203125 -20.453125 "/></g></g></g><g fill="#ff4444" fill-opacity="1"><g transform="translate(207.394139, 35.159755)"><g><path d="M 11.265625 0.4375 C 9.273438 0.4375 7.347656 0.164062 5.484375 -0.375 C 3.628906 -0.914062 2.140625 -1.617188 1.015625 -2.484375 L 2.984375 -6.875 C 4.066406 -6.082031 5.351562 -5.445312 6.84375 -4.96875 C 8.332031 -4.488281 9.816406 -4.25 11.296875 -4.25 C 12.953125 -4.25 14.175781 -4.492188 14.96875 -4.984375 C 15.757812 -5.472656 16.15625 -6.128906 16.15625 -6.953125 C 16.15625 -7.546875 15.921875 -8.039062 15.453125 -8.4375 C 14.992188 -8.832031 14.394531 -9.148438 13.65625 -9.390625 C 12.925781 -9.628906 11.9375 -9.894531 10.6875 -10.1875 C 8.769531 -10.644531 7.195312 -11.097656 5.96875 -11.546875 C 4.75 -12.003906 3.703125 -12.738281 2.828125 -13.75 C 1.953125 -14.757812 1.515625 -16.101562 1.515625 -17.78125 C 1.515625 -19.25 1.910156 -20.578125 2.703125 -21.765625 C 3.492188 -22.953125 4.6875 -23.890625 6.28125 -24.578125 C 7.875 -25.273438 9.820312 -25.625 12.125 -25.625 C 13.738281 -25.625 15.3125 -25.429688 16.84375 -25.046875 C 18.382812 -24.671875 19.726562 -24.125 20.875 -23.40625 L 19.078125 -18.96875 C 16.753906 -20.289062 14.425781 -20.953125 12.09375 -20.953125 C 10.457031 -20.953125 9.25 -20.6875 8.46875 -20.15625 C 7.695312 -19.632812 7.3125 -18.941406 7.3125 -18.078125 C 7.3125 -17.210938 7.757812 -16.566406 8.65625 -16.140625 C 9.5625 -15.722656 10.9375 -15.3125 12.78125 -14.90625 C 14.695312 -14.445312 16.265625 -13.988281 17.484375 -13.53125 C 18.710938 -13.082031 19.765625 -12.363281 20.640625 -11.375 C 21.515625 -10.394531 21.953125 -9.0625 21.953125 -7.375 C 21.953125 -5.9375 21.550781 -4.625 20.75 -3.4375 C 19.945312 -2.25 18.738281 -1.304688 17.125 -0.609375 C 15.519531 0.0859375 13.566406 0.4375 11.265625 0.4375 Z M 11.265625 0.4375 "/></g></g></g></g></g></svg>