<svg xmlns="http://www.w3.org/2000/svg" xmlns:xlink="http://www.w3.org/1999/xlink" width="5000" zoomAndPan="magnify" viewBox="0 0 3750 3749.999967" height="5000" preserveAspectRatio="xMidYMid meet" version="1.0"><defs><clipPath id="396035d815"><path d="M 2165 273.398438 L 2326 273.398438 L 2326 1030 L 2165 1030 Z M 2165 273.398438 " clip-rule="nonzero"/></clipPath><clipPath id="14aded6b68"><path d="M 1406 273.398438 L 1568 273.398438 L 1568 1019 L 1406 1019 Z M 1406 273.398438 " clip-rule="nonzero"/></clipPath><clipPath id="1bff9e1f3b"><path d="M 2079 3040.164062 L 2149 3040.164062 L 2149 3093 L 2079 3093 Z M 2079 3040.164062 " clip-rule="nonzero"/></clipPath><clipPath id="a3dcc9de34"><path d="M 315 3284 L 3405 3284 L 3405 3476.664062 L 315 3476.664062 Z M 315 3284 " clip-rule="nonzero"/></clipPath></defs><rect x="-375" width="4500" fill="#ffffff" y="-374.999997" height="4499.99996" fill-opacity="1"/><rect x="-375" width="4500" fill="#0d1b2a" y="-374.999997" height="4499.99996" fill-opacity="1"/><path fill="#ff6b35" d="M 1476.386719 511.839844 C 1454.277344 506.667969 1432.152344 520.355469 1426.960938 542.464844 L 1356.03125 844.457031 L 1155.40625 1637.777344 C 1052.300781 2045.449219 819.335938 2416.425781 497.535156 2686.742188 C 480.398438 2701.136719 477.898438 2726.558594 491.9375 2743.984375 C 506.398438 2761.933594 532.804688 2764.503906 550.457031 2749.6875 C 592.519531 2714.375 633.082031 2677.503906 672.113281 2639.164062 L 672.113281 2996.441406 C 672.113281 3018.957031 689.457031 3038.585938 711.960938 3039.261719 C 735.242188 3039.964844 754.34375 3021.296875 754.34375 2998.164062 L 754.34375 2553.601562 C 797.191406 2506.445312 837.882812 2457.34375 876.304688 2406.382812 L 876.304688 2996.441406 C 876.304688 3018.957031 893.652344 3038.585938 916.15625 3039.261719 C 939.4375 3039.964844 958.535156 3021.296875 958.535156 2998.164062 L 958.535156 2289.164062 C 961.519531 2284.589844 964.566406 2280.058594 967.519531 2275.460938 C 1008.933594 2210.871094 1046.566406 2144.242188 1080.5 2075.890625 L 1080.5 2996.4375 C 1080.5 3018.949219 1097.84375 3038.582031 1120.347656 3039.257812 C 1143.628906 3039.957031 1162.730469 3021.292969 1162.730469 2998.15625 L 1162.730469 1887.59375 C 1191.140625 1812.671875 1215.367188 1736.054688 1235.125 1657.9375 L 1435.835938 864.277344 C 1435.898438 864.050781 1435.953125 863.824219 1436 863.597656 L 1507.015625 561.269531 C 1512.207031 539.160156 1498.496094 517.03125 1476.386719 511.839844 Z M 1476.386719 511.839844 " fill-opacity="1" fill-rule="nonzero"/><path fill="#ff6b35" d="M 3251.78125 2712.328125 C 2913.886719 2440.078125 2669.203125 2058.46875 2562.8125 1637.773438 L 2362.207031 844.53125 L 2280.316406 505.894531 C 2274.976562 483.832031 2252.761719 470.273438 2230.6875 475.597656 C 2208.617188 480.9375 2195.046875 503.148438 2200.386719 525.226562 L 2282.382812 864.28125 L 2483.09375 1657.941406 C 2502.851562 1736.054688 2527.078125 1812.675781 2555.488281 1887.597656 L 2555.488281 2998.167969 C 2555.488281 3020.878906 2573.898438 3039.285156 2596.605469 3039.285156 C 2619.3125 3039.285156 2637.71875 3020.878906 2637.71875 2998.167969 L 2637.71875 2075.890625 C 2671.660156 2144.238281 2709.285156 2210.867188 2750.699219 2275.460938 C 2753.648438 2280.058594 2756.695312 2284.59375 2759.683594 2289.164062 L 2759.683594 2998.164062 C 2759.683594 3020.875 2778.089844 3039.277344 2800.796875 3039.277344 C 2823.503906 3039.277344 2841.914062 3020.875 2841.914062 2998.164062 L 2841.914062 2406.382812 C 2880.335938 2457.34375 2921.027344 2506.4375 2963.875 2553.601562 L 2963.875 2998.164062 C 2963.875 3020.875 2982.285156 3039.277344 3004.992188 3039.277344 C 3027.699219 3039.277344 3046.105469 3020.875 3046.105469 2998.164062 L 3046.105469 2639.160156 C 3095.082031 2687.269531 3146.464844 2733.066406 3200.195312 2776.355469 C 3207.796875 2782.480469 3216.910156 2785.457031 3225.964844 2785.457031 C 3237.976562 2785.457031 3249.882812 2780.222656 3258.007812 2770.132812 C 3272.25 2752.460938 3269.464844 2726.574219 3251.78125 2712.328125 Z M 3251.78125 2712.328125 " fill-opacity="1" fill-rule="nonzero"/><path fill="#c4451c" d="M 2148.9375 1021.152344 L 1457.808594 1021.152344 L 1457.808594 1276.664062 L 1583.964844 1265.761719 L 1594.492188 1265.761719 L 1702.707031 1188.246094 L 2030.199219 1188.246094 L 2145.648438 1270.96875 L 2148.9375 1270.96875 L 2268.371094 1276.664062 L 2268.371094 1021.152344 Z M 2148.9375 1021.152344 " fill-opacity="1" fill-rule="nonzero"/><path fill="#c4451c" d="M 2165.824219 401.359375 L 1457.808594 401.359375 L 1457.808594 681.121094 L 1567.082031 665.648438 L 1702.707031 568.503906 L 2030.199219 568.503906 L 2165.824219 665.648438 L 2268.371094 681.121094 L 2268.371094 401.359375 Z M 2165.824219 401.359375 " fill-opacity="1" fill-rule="nonzero"/><path fill="#c4451c" d="M 2125.585938 1629.324219 L 1515.660156 1629.324219 L 1515.660156 1880.15625 L 1607.320312 1864.777344 L 1702.707031 1796.417969 L 2030.199219 1796.417969 L 2125.585938 1864.777344 L 2245.886719 1872.75 L 2245.886719 1629.324219 Z M 2125.585938 1629.324219 " fill-opacity="1" fill-rule="nonzero"/><path fill="#c4451c" d="M 2104.261719 2313.535156 L 1476.007812 2313.535156 L 1476.007812 2550.96875 L 1628.644531 2533.746094 L 1702.707031 2480.625 L 2030.199219 2480.625 L 2104.261719 2533.746094 L 2245.886719 2558.179688 L 2245.886719 2313.535156 Z M 2104.261719 2313.535156 " fill-opacity="1" fill-rule="nonzero"/><g clip-path="url(#396035d815)"><path fill="#e35225" d="M 2325.953125 314.195312 L 2325.953125 1029.597656 L 2165.824219 1029.597656 L 2165.824219 314.195312 C 2165.824219 291.5 2184.242188 273.136719 2206.882812 273.136719 L 2284.894531 273.136719 C 2307.589844 273.136719 2325.953125 291.5 2325.953125 314.195312 Z M 2325.953125 314.195312 " fill-opacity="1" fill-rule="nonzero"/></g><path fill="#c4451c" d="M 2165.824219 760.976562 L 2325.953125 760.976562 L 2325.953125 1029.597656 L 2165.824219 1029.597656 Z M 2165.824219 760.976562 " fill-opacity="1" fill-rule="nonzero"/><path fill="#e35225" d="M 2342.835938 867.109375 L 2342.835938 1728.824219 L 2148.9375 1728.824219 L 2148.9375 867.109375 C 2148.9375 859.984375 2154.75 854.171875 2161.875 854.171875 L 2329.898438 854.171875 C 2337.082031 854.171875 2342.835938 859.984375 2342.835938 867.109375 Z M 2342.835938 867.109375 " fill-opacity="1" fill-rule="nonzero"/><path fill="#c4451c" d="M 2148.9375 1410.867188 L 2342.835938 1410.867188 L 2342.835938 1728.824219 L 2148.9375 1728.824219 Z M 2148.9375 1410.867188 " fill-opacity="1" fill-rule="nonzero"/><path fill="#e35225" d="M 2148.9375 1504.0625 L 2349.414062 1504.0625 C 2358.679688 1504.0625 2366.191406 1511.574219 2366.191406 1520.835938 L 2366.191406 2421.636719 L 2125.585938 2421.636719 L 2125.585938 1520.835938 C 2125.585938 1511.574219 2133.097656 1504.0625 2142.417969 1504.0625 Z M 2148.9375 1504.0625 " fill-opacity="1" fill-rule="nonzero"/><path fill="#c4451c" d="M 2358.1875 2125.609375 L 2133.644531 2125.609375 C 2130.9375 2125.609375 2128.25 2125.730469 2125.585938 2125.90625 L 2125.585938 2421.636719 L 2366.191406 2421.636719 L 2366.191406 2125.902344 C 2363.542969 2125.730469 2360.878906 2125.609375 2358.1875 2125.609375 Z M 2358.1875 2125.609375 " fill-opacity="1" fill-rule="nonzero"/><path fill="#e35225" d="M 2387.515625 2248.132812 L 2387.515625 2968.257812 C 2387.515625 2984.78125 2374.125 2998.179688 2357.59375 2998.179688 L 2134.175781 2998.179688 C 2117.652344 2998.179688 2104.253906 2984.785156 2104.253906 2968.257812 L 2104.253906 2248.1875 C 2104.253906 2231.960938 2117.414062 2218.804688 2133.640625 2218.804688 L 2358.179688 2218.804688 C 2374.386719 2218.804688 2387.515625 2231.933594 2387.515625 2248.132812 Z M 2387.515625 2248.132812 " fill-opacity="1" fill-rule="nonzero"/><g clip-path="url(#14aded6b68)"><path fill="#e35225" d="M 1567.082031 314.195312 L 1567.082031 1018.632812 L 1406.953125 1018.632812 L 1406.953125 314.195312 C 1406.953125 291.5 1425.316406 273.136719 1448.011719 273.136719 L 1526.019531 273.136719 C 1548.660156 273.136719 1567.082031 291.5 1567.082031 314.195312 Z M 1567.082031 314.195312 " fill-opacity="1" fill-rule="nonzero"/></g><path fill="#c4451c" d="M 1406.953125 760.976562 L 1567.082031 760.976562 L 1567.082031 1018.632812 L 1406.953125 1018.632812 Z M 1406.953125 760.976562 " fill-opacity="1" fill-rule="nonzero"/><path fill="#e35225" d="M 1583.964844 867.109375 L 1583.964844 1706.894531 L 1390.066406 1706.894531 L 1390.066406 867.109375 C 1390.066406 859.984375 1395.824219 854.171875 1403.003906 854.171875 L 1571.027344 854.171875 C 1578.15625 854.171875 1583.964844 859.984375 1583.964844 867.109375 Z M 1583.964844 867.109375 " fill-opacity="1" fill-rule="nonzero"/><path fill="#c4451c" d="M 1390.066406 1410.867188 L 1583.964844 1410.867188 L 1583.964844 1706.894531 L 1390.066406 1706.894531 Z M 1390.066406 1410.867188 " fill-opacity="1" fill-rule="nonzero"/><path fill="#e35225" d="M 1607.320312 1520.835938 L 1607.320312 2410.675781 L 1366.714844 2410.675781 L 1366.714844 1520.835938 C 1366.714844 1511.574219 1374.222656 1504.0625 1383.488281 1504.0625 L 1590.488281 1504.0625 C 1599.808594 1504.0625 1607.320312 1511.574219 1607.320312 1520.835938 Z M 1607.320312 1520.835938 " fill-opacity="1" fill-rule="nonzero"/><path fill="#c4451c" d="M 1607.320312 2125.90625 C 1604.648438 2125.730469 1601.96875 2125.609375 1599.261719 2125.609375 L 1374.71875 2125.609375 C 1372.027344 2125.609375 1369.363281 2125.726562 1366.714844 2125.902344 L 1366.714844 2410.675781 L 1607.320312 2410.675781 Z M 1607.320312 2125.90625 " fill-opacity="1" fill-rule="nonzero"/><path fill="#e35225" d="M 1628.644531 2248.1875 L 1628.644531 2969.378906 C 1628.644531 2985.285156 1615.75 2998.179688 1599.839844 2998.179688 L 1374.191406 2998.179688 C 1358.28125 2998.179688 1345.390625 2985.285156 1345.390625 2969.378906 L 1345.390625 2248.132812 C 1345.390625 2231.933594 1358.519531 2218.804688 1374.71875 2218.804688 L 1599.261719 2218.804688 C 1615.488281 2218.804688 1628.644531 2231.960938 1628.644531 2248.1875 Z M 1628.644531 2248.1875 " fill-opacity="1" fill-rule="nonzero"/><g clip-path="url(#1bff9e1f3b)"><path fill="#2a8fb5" d="M 2115.945312 3041.394531 C 2123.289062 3039.667969 2131.382812 3039.671875 2138.589844 3041.964844 C 2146.691406 3047.648438 2152.367188 3056.460938 2146.046875 3065.835938 C 2136.464844 3081.753906 2111.574219 3088.199219 2094.558594 3092.21875 C 2085.664062 3095.050781 2078.09375 3087.25 2079.085938 3078.554688 C 2079.957031 3059.722656 2099.5 3046.285156 2115.945312 3041.394531 Z M 2115.945312 3041.394531 " fill-opacity="1" fill-rule="nonzero"/></g><path fill="#2a8fb5" d="M 3475.125 3125.398438 C 3473.761719 3135.339844 3473.984375 3144.292969 3467.113281 3152.410156 C 3451.574219 3172.160156 3431.636719 3188.761719 3413.5 3206.148438 C 3374.738281 3242.980469 3333.628906 3277.039062 3289.460938 3307.253906 C 3237.261719 3342.078125 3173.851562 3361.003906 3114.203125 3379.820312 C 3052.695312 3398.308594 2986.777344 3392.628906 2928.734375 3365.53125 C 2911.058594 3357.277344 2895.179688 3346.96875 2876.730469 3340.246094 C 2865.554688 3336.089844 2854.945312 3331.390625 2845.96875 3323.324219 C 2825.554688 3305.144531 2807.566406 3284.558594 2791.738281 3262.28125 C 2789.394531 3259.398438 2785.195312 3253.152344 2781.085938 3256.890625 C 2763.53125 3271.199219 2747.289062 3286.84375 2728.222656 3299.273438 C 2692.332031 3324.550781 2653.277344 3338.425781 2612.246094 3352.734375 C 2567 3369.121094 2520.460938 3377.960938 2472.292969 3378.3125 C 2445.308594 3380.042969 2418.757812 3376.464844 2392.320312 3371.433594 C 2370.304688 3366.941406 2350.289062 3357.910156 2328.636719 3351.632812 C 2301.195312 3343.828125 2278.679688 3321.007812 2255.988281 3303.820312 C 2220.15625 3276.046875 2198.953125 3239.945312 2172.921875 3203.707031 C 2143.730469 3224.121094 2116.363281 3247.085938 2086.917969 3267.179688 C 2059.722656 3285.433594 2029.519531 3297.316406 2000.246094 3312.699219 C 1964.34375 3331.574219 1927.414062 3352.503906 1887.609375 3361.695312 C 1849.96875 3370.578125 1809.226562 3375.691406 1770.859375 3369.152344 C 1725.0625 3361.648438 1676.535156 3349.898438 1636.1875 3326.261719 C 1600.476562 3305.628906 1574.410156 3277.40625 1540.925781 3251.671875 C 1522.730469 3237.941406 1506.804688 3221.914062 1491.335938 3205.257812 C 1464.582031 3229.636719 1437.0625 3249.679688 1405.726562 3267.832031 C 1357.246094 3296.863281 1305.734375 3326.617188 1251.59375 3343.574219 C 1207.957031 3356.328125 1163.121094 3366.367188 1118.125 3372.871094 C 1100.761719 3375.449219 1085.410156 3380.746094 1068.035156 3379.910156 C 998.621094 3374.316406 938.621094 3346.421875 879.871094 3310.886719 C 841.5625 3286.433594 810.382812 3247.394531 784.300781 3210.734375 C 769.324219 3220.535156 755.078125 3230.992188 741.175781 3242.269531 C 717.546875 3261.171875 692.078125 3277.214844 665.75 3292.0625 C 630.574219 3311.703125 592.542969 3325.132812 554.90625 3339.042969 C 519.613281 3352.152344 483.757812 3363.625 447.472656 3373.691406 C 428.226562 3379.28125 408.78125 3379.179688 389.988281 3386.40625 C 361.5 3397.074219 326.015625 3405.035156 296.4375 3394.8125 C 288.355469 3390.898438 272.132812 3383.449219 275.257812 3372.179688 C 275.921875 3361.664062 291.777344 3361.496094 299.484375 3360.097656 C 327.972656 3358.253906 355.097656 3350.890625 382.9375 3345.292969 C 393.289062 3343.226562 402.960938 3339.4375 412.585938 3335.183594 C 429.902344 3327.539062 447.832031 3322.914062 465.652344 3316.714844 C 493.867188 3306.835938 521.105469 3295.144531 548.574219 3283.425781 C 574.710938 3272.25 601.53125 3261.996094 625.980469 3247.855469 C 649.863281 3234.296875 671.84375 3218.222656 693.484375 3201.367188 C 709.410156 3188.8125 725.207031 3178.054688 739.292969 3163.332031 C 746.09375 3156.515625 752.976562 3148.167969 761.21875 3143.152344 C 775.613281 3134.238281 797.042969 3140.386719 804.492188 3155.625 C 810.824219 3167.3125 815.6875 3179.15625 824.792969 3189.183594 C 841.027344 3207.339844 858.9375 3224.316406 877.234375 3240.464844 C 903.0625 3263.6875 937.636719 3278.890625 969.472656 3292.222656 C 995.96875 3303.394531 1023.382812 3311.773438 1052.128906 3314.511719 C 1080.476562 3316.800781 1103.707031 3325.921875 1131.765625 3319.796875 C 1164.019531 3312.664062 1195.578125 3302.003906 1226.992188 3291.875 C 1284.585938 3271.914062 1339.726562 3235.867188 1390.328125 3202.265625 C 1414.609375 3186.238281 1436.582031 3167.402344 1457.4375 3147.203125 C 1467.835938 3137.65625 1479.816406 3125.703125 1495.207031 3127.773438 C 1513.058594 3131.242188 1524.378906 3148.753906 1535.875 3161.40625 C 1561 3191.457031 1591.726562 3209.066406 1621.269531 3233.941406 C 1643.210938 3252.238281 1663.679688 3270.15625 1690.710938 3280.742188 C 1726.917969 3294.839844 1765.878906 3303.902344 1804.8125 3304.71875 C 1833.566406 3305.84375 1863.742188 3297.410156 1890.847656 3288.242188 C 1925.011719 3276.183594 1955.613281 3255.195312 1989.226562 3239.691406 C 2014.46875 3228.046875 2038.6875 3214.664062 2060.679688 3197.632812 C 2079.128906 3183.101562 2097.289062 3168.207031 2116.09375 3154.15625 C 2134.097656 3140.789062 2151.636719 3126.746094 2174.816406 3124.433594 C 2189.226562 3123.269531 2200.421875 3131.453125 2209.191406 3141.964844 C 2227.5 3164.445312 2241.398438 3190.613281 2260.023438 3212.957031 C 2273.851562 3229.449219 2288.714844 3245.996094 2305.542969 3259.460938 C 2322.96875 3273.878906 2341.019531 3285.222656 2355.535156 3301.828125 C 2363.207031 3309.828125 2369.175781 3319.695312 2380.839844 3321.878906 C 2402.714844 3326.054688 2425.765625 3328.375 2448.050781 3327.742188 C 2488.441406 3327.214844 2530.539062 3322.554688 2568.605469 3308.476562 C 2625.523438 3289.015625 2679.4375 3267.597656 2724.453125 3226.300781 C 2739.46875 3212.851562 2750.59375 3196.058594 2764.871094 3182.035156 C 2775.785156 3170.714844 2794.695312 3172.203125 2807.359375 3179.46875 C 2821.785156 3187.476562 2827.644531 3206.003906 2835.796875 3219.554688 C 2849.195312 3243.542969 2869.558594 3258.304688 2887.890625 3278.179688 C 2896.667969 3287.121094 2904.277344 3297.839844 2914.074219 3305.566406 C 2954.664062 3332.667969 3001.707031 3339.816406 3049.714844 3336.617188 C 3082.328125 3333.609375 3115.015625 3320.4375 3145.816406 3309.585938 C 3187.832031 3294.792969 3227.753906 3276.820312 3264.035156 3250.679688 C 3286.933594 3234 3309.167969 3216.753906 3334.023438 3202.902344 C 3372.550781 3181.519531 3406.992188 3154.667969 3443.523438 3130.34375 C 3454.582031 3122.828125 3462.328125 3122.925781 3475.125 3125.398438 Z M 3475.125 3125.398438 " fill-opacity="1" fill-rule="nonzero"/><path fill="#2a8fb5" d="M 2316.148438 3133.261719 C 2333.25 3148.046875 2348.472656 3165.035156 2365.367188 3180.117188 C 2386.378906 3200.820312 2413.597656 3215.140625 2442.339844 3221.554688 C 2461.695312 3225.5625 2481.125 3225.277344 2500.46875 3221.460938 C 2525.65625 3216.640625 2554.332031 3215.613281 2577.652344 3205.480469 C 2590.554688 3200.132812 2601.96875 3191.640625 2614.902344 3186.449219 C 2619.886719 3184.328125 2624.347656 3185.601562 2629.398438 3186.59375 C 2632.589844 3200.304688 2623.730469 3209.085938 2614.789062 3217.863281 C 2592.5625 3237.875 2561.488281 3250.285156 2533.75 3260.609375 C 2513.816406 3267.582031 2495.484375 3275.519531 2473.941406 3274.429688 C 2419.03125 3274.695312 2363.460938 3248.6875 2330.445312 3204.449219 C 2316.859375 3186.972656 2299.859375 3168.816406 2292.5625 3147.714844 C 2290.742188 3141.480469 2288.78125 3134.28125 2294.851562 3129.6875 C 2300.949219 3122.414062 2310.433594 3128.820312 2316.148438 3133.261719 Z M 2316.148438 3133.261719 " fill-opacity="1" fill-rule="nonzero"/><path fill="#2a8fb5" d="M 2883.3125 3162.042969 C 2887.121094 3166.230469 2890.359375 3171.082031 2893.648438 3175.667969 C 2882.074219 3175.445312 2870.832031 3173.320312 2859.511719 3171.113281 C 2860.585938 3167.449219 2861.699219 3163.785156 2862.851562 3160.125 C 2869.371094 3160.199219 2877.28125 3159.269531 2883.3125 3162.042969 Z M 2883.3125 3162.042969 " fill-opacity="1" fill-rule="nonzero"/><path fill="#2a8fb5" d="M 1996.464844 3129.429688 C 2003.980469 3136.84375 1998.914062 3148.585938 1993.515625 3155.707031 C 1974.71875 3180.578125 1948.984375 3199.445312 1920.339844 3211.601562 C 1878.964844 3230.996094 1835.554688 3254.039062 1788.347656 3250.027344 C 1762.894531 3248.117188 1734.125 3249.527344 1710.027344 3240.855469 C 1679.617188 3231.089844 1654.59375 3204.191406 1638.460938 3177.488281 C 1647.835938 3177.210938 1656.734375 3175.796875 1665.535156 3179.902344 C 1685.035156 3188.484375 1699.21875 3201.160156 1721.496094 3203.554688 C 1751.371094 3206.730469 1782.191406 3205.703125 1811.925781 3201.3125 C 1846.28125 3195.789062 1870.335938 3177.484375 1900.972656 3162.441406 C 1920.148438 3153.050781 1935.082031 3138.257812 1952.972656 3127.070312 C 1965.757812 3118.800781 1985.464844 3117.535156 1996.464844 3129.429688 Z M 1996.464844 3129.429688 " fill-opacity="1" fill-rule="nonzero"/><path fill="#2a8fb5" d="M 3204.003906 3189.832031 C 3213.980469 3189.777344 3231.03125 3196.082031 3231.289062 3207.988281 C 3228.011719 3220.667969 3215.574219 3227.457031 3204.324219 3232.007812 C 3184.3125 3239.746094 3163.851562 3245.847656 3144.347656 3254.914062 C 3122.882812 3264.070312 3104.363281 3276.296875 3080.117188 3274.871094 C 3038.09375 3272.207031 2997.664062 3275 2958.351562 3257.972656 C 2944.441406 3251.796875 2937.621094 3240.660156 2932.234375 3227.027344 C 2958.203125 3223.515625 2983.132812 3230.230469 3009.148438 3227.875 C 3025.957031 3226.339844 3042.664062 3223.839844 3059.566406 3223.34375 C 3076.015625 3222.789062 3091.246094 3219.867188 3106.53125 3213.761719 C 3137.421875 3201.1875 3170.476562 3191.179688 3204.003906 3189.832031 Z M 3204.003906 3189.832031 " fill-opacity="1" fill-rule="nonzero"/><path fill="#2a8fb5" d="M 915.972656 3162.351562 C 929.71875 3170.132812 940.277344 3182.425781 955.039062 3189.222656 C 975.269531 3199.222656 999.675781 3200.539062 1019.128906 3211.496094 C 1030.054688 3221.125 1037.265625 3236.539062 1041.84375 3250.167969 C 1037.605469 3262.222656 1018.082031 3261.429688 1007.636719 3262.378906 C 980.964844 3264.011719 961.851562 3250.195312 938.882812 3239.015625 C 920.367188 3229.949219 907.699219 3214.015625 898.914062 3195.757812 C 894.796875 3187.214844 894.433594 3177.296875 897.246094 3168.316406 C 901.457031 3161.132812 908.40625 3158.847656 915.972656 3162.351562 Z M 915.972656 3162.351562 " fill-opacity="1" fill-rule="nonzero"/><g clip-path="url(#a3dcc9de34)"><path fill="#2a8fb5" d="M 3369.433594 3316.359375 C 3381.828125 3317.007812 3393.09375 3320.9375 3404.265625 3325.898438 C 3397.628906 3329.578125 3391.921875 3333.804688 3384.089844 3334.582031 C 3354.164062 3339 3326.734375 3336.105469 3297.683594 3347.96875 C 3270.421875 3358.625 3255.402344 3379.511719 3231.410156 3396.554688 C 3209.578125 3413.480469 3186.128906 3425.332031 3159.902344 3433.855469 C 3126.0625 3447.042969 3090.75 3455.433594 3054.398438 3457.289062 C 3027.644531 3457.535156 3001.261719 3455.15625 2974.859375 3450.855469 C 2934.929688 3446.34375 2893.9375 3448.183594 2854.152344 3442.339844 C 2818.070312 3434.691406 2783.253906 3418.976562 2749.960938 3403.460938 C 2728.257812 3420.046875 2714.386719 3438.769531 2689.148438 3449.644531 C 2662.6875 3461.839844 2634.941406 3460.578125 2606.785156 3456.144531 C 2592.941406 3453.808594 2578.667969 3447.304688 2564.644531 3447.644531 C 2549.402344 3450.105469 2535.046875 3456.796875 2519.820312 3459.679688 C 2475.09375 3468.347656 2428.679688 3463.800781 2383.253906 3461.648438 C 2357.339844 3460.523438 2334.554688 3452.382812 2310.28125 3444.128906 C 2264.925781 3429.703125 2224.128906 3394.109375 2185.464844 3366.914062 C 2180.820312 3364.023438 2176.136719 3361.132812 2170.570312 3360.496094 C 2161.183594 3363.226562 2152.714844 3370.339844 2144.789062 3375.871094 C 2118.792969 3395.339844 2090.4375 3410.769531 2060.820312 3423.988281 C 2031.792969 3436.851562 2005.78125 3451.488281 1974.398438 3457.359375 C 1921.457031 3466.859375 1867.386719 3467.863281 1814.101562 3460.503906 C 1796.746094 3457.828125 1782.207031 3449.777344 1766.933594 3441.839844 C 1751.039062 3433.296875 1731.125 3435.472656 1713.332031 3433.925781 C 1676.40625 3432.066406 1639.542969 3418.089844 1608.800781 3397.832031 C 1576.761719 3378.121094 1545.230469 3358.320312 1515.027344 3335.828125 C 1492.203125 3349.671875 1471.28125 3366.027344 1447.75 3378.722656 C 1417.183594 3395.339844 1388.824219 3413.804688 1356.414062 3426.835938 C 1331.679688 3436.855469 1307.910156 3449.039062 1283.082031 3458.632812 C 1244.863281 3473.429688 1201.523438 3473.191406 1160.730469 3476.347656 C 1135.273438 3476.777344 1104.160156 3478.214844 1082.183594 3463.480469 C 1066.988281 3454.707031 1056.996094 3438.988281 1038.160156 3439.726562 C 994.148438 3437.613281 949.664062 3437.273438 905.878906 3432.367188 C 871.648438 3426.699219 836.320312 3418.59375 805.097656 3403.105469 C 772.636719 3384.871094 741.828125 3362.960938 712.980469 3339.539062 C 677.242188 3356.773438 643.453125 3379.207031 608.804688 3398.378906 C 587.226562 3409.636719 565.132812 3420.527344 543.03125 3430.835938 C 509.804688 3446.320312 475.84375 3453.785156 440.28125 3461.78125 C 414.90625 3467.242188 390.960938 3472.46875 364.796875 3470.253906 C 345.398438 3468.507812 326.4375 3462.101562 315.199219 3445.246094 C 335.804688 3445.175781 356.246094 3448.242188 375.96875 3445.210938 C 405.570312 3441.125 435.238281 3429.902344 464.363281 3421.761719 C 485.234375 3415.914062 504.292969 3407.972656 523.1875 3397.417969 C 578.878906 3366.921875 633.929688 3334.78125 686.40625 3299.054688 C 698.394531 3290.628906 713.609375 3288.703125 726.398438 3296.546875 C 741.765625 3306.367188 754.238281 3320.179688 769.511719 3330.34375 C 788.382812 3342.882812 807.542969 3355.742188 828.101562 3365.296875 C 862.246094 3379.9375 899.925781 3387.898438 936.722656 3392.167969 C 978.773438 3395.792969 1021.0625 3396.246094 1063.101562 3399.332031 C 1077.925781 3399.804688 1087.105469 3412.753906 1098.554688 3420.488281 C 1113.167969 3432.265625 1135.894531 3430.503906 1153.664062 3430.398438 C 1188.355469 3428.035156 1226.03125 3427.25 1259.589844 3417.960938 C 1284.222656 3411.273438 1304.25 3398.820312 1328.703125 3389.050781 C 1348.882812 3380.980469 1368.464844 3371.878906 1387.191406 3360.8125 C 1418.035156 3342.558594 1448.570312 3328.699219 1476.503906 3305.917969 C 1486.882812 3298.210938 1498.621094 3287.320312 1511.5 3284.578125 C 1525.429688 3282.316406 1533.957031 3292.355469 1543.90625 3300.128906 C 1569.839844 3322.855469 1598.164062 3337.234375 1627.261719 3356.710938 C 1655.828125 3376.011719 1688.679688 3389.667969 1723.335938 3391.636719 C 1739.347656 3392.820312 1756.28125 3388.183594 1771.929688 3391.152344 C 1790.910156 3397.214844 1805.03125 3411.765625 1825.785156 3415.460938 C 1851.121094 3419.589844 1876.957031 3418.527344 1902.34375 3415.792969 C 1923.453125 3413.449219 1945.046875 3412.816406 1965.964844 3408.925781 C 1990.300781 3404.292969 2011.738281 3389.800781 2034.8125 3380 C 2056.707031 3370.714844 2078.359375 3362.375 2097.925781 3348.4375 C 2117.636719 3335.46875 2137.464844 3315.789062 2160.125 3308.730469 C 2176.167969 3303.472656 2192.292969 3316.441406 2205.140625 3324.558594 C 2234.792969 3345.871094 2263.847656 3367.574219 2295.996094 3385.101562 C 2318.554688 3397.601562 2345.117188 3403.90625 2370.023438 3410.316406 C 2411.875 3421.371094 2457.921875 3416.074219 2500.746094 3412.222656 C 2522.371094 3410.285156 2539.984375 3397.015625 2560.957031 3394.316406 C 2575.042969 3394.210938 2589.5 3400.914062 2603.097656 3404.238281 C 2630.445312 3411.734375 2662.28125 3411.828125 2685.847656 3394.074219 C 2701.96875 3382.910156 2712.84375 3363.53125 2730.039062 3354.652344 C 2746.589844 3348.460938 2763.289062 3355.589844 2777.964844 3363.226562 C 2813.972656 3381.148438 2853.667969 3392.324219 2893.414062 3398.128906 C 2928.320312 3402.683594 2965.527344 3400.566406 3000.835938 3406.90625 C 3029.535156 3412.019531 3058.679688 3412.933594 3087.484375 3407.996094 C 3116.421875 3404.066406 3141.238281 3393.246094 3169.105469 3384.886719 C 3195.777344 3376.695312 3213.015625 3359.605469 3236.027344 3345.082031 C 3255.140625 3332.503906 3275.90625 3322.8125 3298.304688 3317.808594 C 3320.773438 3312.234375 3346.367188 3315.074219 3369.429688 3316.359375 Z M 3369.433594 3316.359375 " fill-opacity="1" fill-rule="nonzero"/></g><path fill="#2a8fb5" d="M 1194.8125 3228.074219 C 1191.691406 3233.398438 1188.933594 3239.890625 1184.308594 3244.019531 C 1168.699219 3255.632812 1151.445312 3263.4375 1131.597656 3262.242188 C 1134.203125 3254.285156 1134.125 3246.992188 1142.042969 3242.304688 C 1157.628906 3232.609375 1175.964844 3223.136719 1194.8125 3228.074219 Z M 1194.8125 3228.074219 " fill-opacity="1" fill-rule="nonzero"/></svg>