<svg xmlns="http://www.w3.org/2000/svg" viewBox="0 0 512 357">
  <path fill="#00A1E0" d="M213.2 40.1c18.8-19.4 45-31.5 74-31.5 38.2 0 71.5 21.1 89.3 52.3 15.5-6.9 32.7-10.7 50.8-10.7 70.6 0 127.8 57.3 127.8 127.9s-57.2 127.9-127.8 127.9c-9 0-17.8-.9-26.3-2.7-15.4 27.3-44.9 45.8-78.9 45.8-14.3 0-27.9-3.3-40-9.2-15.6 22.8-41.6 37.7-71.3 37.7-32.8 0-61.4-18.3-76-45.2-7.6 1.6-15.5 2.5-23.6 2.5-66.9 0-111.2-54.3-111.2-121.4 0-50.6 33.4-93.5 79.2-107.8 2.8-50.5 44.6-90.6 95.9-90.6 21.4 0 41.3 7 57.4 18.8l.7 6.2z"/>
</svg>
